<svg id="svg" xmlns="http://www.w3.org/2000/svg" xmlns:xlink="http://www.w3.org/1999/xlink" width="400" height="400" viewBox="0, 0, 400,400"><g id="svgg"><path id="path0" d="M75.781 42.501 C 71.582 44.893,67.165 49.985,65.460 54.399 C 64.691 56.388,64.063 89.536,64.063 128.061 L 64.063 198.107 51.687 198.669 C 44.880 198.978,38.728 199.813,38.015 200.526 C 34.703 203.835,35.664 352.852,39.019 356.207 C 43.379 360.566,346.589 361.277,352.777 356.943 L 356.250 354.510 356.226 279.208 C 356.199 193.312,357.330 199.492,341.484 198.692 L 329.688 198.096 329.688 128.056 C 329.688 89.534,329.059 56.388,328.290 54.399 C 326.505 49.777,322.041 44.742,317.681 42.433 C 312.852 39.875,80.275 39.940,75.781 42.501 M298.438 135.156 L 298.438 198.438 196.875 198.438 L 95.313 198.438 95.313 135.156 L 95.313 71.875 196.875 71.875 L 298.438 71.875 298.438 135.156 M217.708 243.791 C 233.127 251.039,236.483 267.010,225.000 278.493 L 218.750 284.743 218.750 307.215 L 218.750 329.688 198.438 329.688 L 178.125 329.688 178.125 307.413 L 178.125 285.138 173.457 283.071 C 161.898 277.955,157.478 259.479,165.707 250.671 C 176.674 238.933,200.629 235.764,217.708 243.791 " stroke="none" fill="#000000" fill-rule="evenodd"></path></g></svg>