<svg id="svg" version="1.1" xmlns="http://www.w3.org/2000/svg" xmlns:xlink="http://www.w3.org/1999/xlink" width="400" height="400" viewBox="0, 0, 400,400"><g id="svgg"><path id="path0" d="M29.400 15.264 C 23.858 18.133,24.019 17.107,24.009 49.700 L 24.000 77.600 20.024 77.600 C 17.804 77.600,15.938 77.777,15.800 78.000 C 15.664 78.220,15.194 78.400,14.756 78.400 C 12.832 78.400,12.800 78.947,12.806 111.487 C 12.812 144.515,12.707 143.032,15.165 144.688 L 16.518 145.600 78.305 145.600 L 140.091 145.600 141.685 144.704 C 144.552 143.093,144.400 144.941,144.400 111.607 C 144.400 79.666,144.370 79.142,142.518 78.565 C 142.123 78.442,141.487 78.175,141.105 77.971 C 140.723 77.767,138.878 77.600,137.005 77.600 L 133.600 77.600 133.594 50.100 C 133.587 20.072,133.667 21.136,131.192 17.894 C 128.284 14.086,132.988 14.398,78.689 14.418 C 31.254 14.435,30.991 14.440,29.400 15.264 M117.600 54.000 L 117.600 77.600 78.800 77.600 L 40.000 77.600 40.000 54.000 L 40.000 30.400 78.800 30.400 L 117.600 30.400 117.600 54.000 M82.400 97.895 C 90.709 99.573,93.352 105.227,88.200 110.303 L 85.600 112.865 85.600 121.432 L 85.600 130.000 79.200 130.000 L 72.800 130.000 72.800 121.480 C 72.800 112.691,72.680 112.000,71.152 112.000 C 69.173 112.000,65.539 106.409,66.432 104.739 C 66.635 104.362,66.800 103.716,66.800 103.305 C 66.800 101.748,72.064 98.006,74.271 97.994 C 74.892 97.991,75.670 97.805,76.000 97.582 C 76.634 97.153,79.397 97.288,82.400 97.895 " stroke="none" fill="#fc0404" fill-rule="evenodd"></path><path id="path1" d="M161.000 0.306 C 156.568 3.562,155.862 10.646,159.534 15.013 C 160.545 16.216,161.599 17.200,161.876 17.200 C 162.153 17.200,162.659 17.740,163.000 18.400 C 163.341 19.060,163.756 19.600,163.921 19.600 C 164.086 19.600,166.120 21.445,168.442 23.700 C 170.764 25.955,176.564 31.574,181.332 36.186 L 190.000 44.572 190.006 60.186 C 190.012 76.641,190.077 77.314,191.900 79.864 C 192.395 80.557,192.800 81.294,192.800 81.503 C 192.800 81.712,193.834 82.540,195.098 83.342 C 199.456 86.107,204.749 84.957,207.934 80.552 C 209.962 77.746,210.000 77.381,210.004 60.440 L 210.009 44.600 216.856 38.000 C 220.621 34.370,225.870 29.285,228.519 26.700 C 231.169 24.115,233.455 22.000,233.601 22.000 C 233.746 22.000,234.082 21.595,234.347 21.099 C 234.612 20.603,235.363 19.892,236.015 19.517 C 236.667 19.143,237.200 18.571,237.200 18.246 C 237.200 17.920,237.521 17.552,237.913 17.428 C 242.706 15.906,244.404 5.993,240.575 1.882 L 238.822 0.000 233.511 0.013 C 229.559 0.022,228.008 0.171,227.450 0.593 C 226.781 1.100,216.488 11.022,204.370 22.842 L 200.021 27.083 194.438 21.642 C 184.812 12.259,179.092 6.715,175.515 3.300 L 172.059 -0.000 166.729 0.006 C 163.798 0.009,161.220 0.144,161.000 0.306 M196.484 107.594 C 194.336 108.103,192.966 109.473,191.190 112.889 L 190.000 115.177 190.000 171.389 C 190.000 220.224,189.924 227.600,189.420 227.600 C 189.101 227.600,188.040 228.140,187.062 228.800 C 186.084 229.460,185.011 230.000,184.677 230.000 C 184.343 230.000,183.113 230.630,181.944 231.400 C 180.775 232.170,179.564 232.800,179.253 232.800 C 178.943 232.800,177.811 233.340,176.738 234.000 C 175.666 234.660,174.530 235.200,174.214 235.200 C 173.898 235.200,172.840 235.740,171.862 236.400 C 170.884 237.060,169.804 237.600,169.462 237.600 C 169.120 237.600,168.040 238.140,167.062 238.800 C 166.084 239.460,164.916 240.000,164.466 240.000 C 164.015 240.000,163.545 240.166,163.420 240.368 C 163.132 240.834,159.635 242.800,159.094 242.800 C 158.871 242.800,157.811 243.340,156.738 244.000 C 155.666 244.660,154.530 245.200,154.214 245.200 C 153.898 245.200,152.840 245.740,151.862 246.400 C 150.884 247.060,149.804 247.600,149.462 247.600 C 149.120 247.600,148.040 248.140,147.062 248.800 C 146.084 249.460,144.916 250.000,144.466 250.000 C 144.015 250.000,143.545 250.166,143.420 250.368 C 143.132 250.834,139.635 252.800,139.094 252.800 C 138.871 252.800,137.811 253.340,136.738 254.000 C 135.666 254.660,134.530 255.200,134.214 255.200 C 133.898 255.200,132.840 255.740,131.862 256.400 C 130.884 257.060,129.804 257.600,129.462 257.600 C 129.120 257.600,128.040 258.140,127.062 258.800 C 126.084 259.460,124.916 260.000,124.466 260.000 C 124.015 260.000,123.545 260.166,123.420 260.368 C 123.097 260.891,119.604 262.800,118.970 262.800 C 118.678 262.800,117.640 263.340,116.662 264.000 C 115.684 264.660,114.604 265.200,114.262 265.200 C 113.920 265.200,112.840 265.740,111.862 266.400 C 110.884 267.060,109.727 267.600,109.291 267.600 C 108.855 267.600,108.274 267.870,108.000 268.200 C 107.726 268.530,107.276 268.800,107.000 268.800 C 106.724 268.800,106.274 269.070,106.000 269.400 C 105.726 269.730,105.085 270.000,104.575 270.000 C 104.065 270.000,103.545 270.166,103.420 270.368 C 103.097 270.891,99.604 272.800,98.970 272.800 C 98.678 272.800,97.666 273.317,96.720 273.950 C 95.774 274.582,94.640 275.212,94.200 275.349 C 93.384 275.603,92.522 276.814,90.907 279.975 C 87.022 287.577,97.783 296.050,105.400 291.385 C 106.280 290.846,107.270 290.301,107.600 290.174 C 108.674 289.759,110.566 288.854,112.200 287.975 C 113.080 287.501,114.340 286.846,115.000 286.519 C 115.660 286.192,116.650 285.694,117.200 285.412 C 117.750 285.130,119.010 284.510,120.000 284.035 C 120.990 283.559,122.070 283.018,122.400 282.832 C 122.730 282.647,123.810 282.107,124.800 281.632 C 125.790 281.158,126.870 280.618,127.200 280.433 C 127.530 280.248,128.430 279.813,129.200 279.466 C 129.970 279.120,131.320 278.448,132.200 277.975 C 133.080 277.501,134.340 276.846,135.000 276.519 C 135.660 276.192,136.650 275.694,137.200 275.412 C 137.750 275.130,139.010 274.510,140.000 274.035 C 140.990 273.559,142.070 273.018,142.400 272.832 C 142.730 272.647,143.810 272.107,144.800 271.632 C 145.790 271.158,146.870 270.616,147.200 270.427 C 147.530 270.238,149.510 269.251,151.600 268.232 C 153.690 267.213,156.030 266.047,156.800 265.641 C 157.570 265.236,159.010 264.514,160.000 264.037 C 160.990 263.560,162.070 263.018,162.400 262.832 C 162.730 262.647,163.810 262.107,164.800 261.632 C 165.790 261.158,166.870 260.616,167.200 260.427 C 167.530 260.238,169.510 259.251,171.600 258.232 C 173.690 257.213,176.030 256.047,176.800 255.641 C 177.570 255.236,179.010 254.514,180.000 254.037 C 180.990 253.560,182.070 253.018,182.400 252.832 C 182.730 252.647,183.810 252.107,184.800 251.632 C 185.790 251.158,186.870 250.619,187.200 250.434 C 187.530 250.250,189.420 249.314,191.400 248.356 C 193.380 247.397,195.720 246.172,196.600 245.633 C 198.898 244.226,201.217 244.322,203.918 245.935 C 205.082 246.631,206.229 247.200,206.465 247.200 C 206.702 247.200,207.932 247.830,209.200 248.600 C 210.468 249.370,211.703 250.000,211.946 250.000 C 212.189 250.000,213.266 250.540,214.338 251.200 C 215.411 251.860,216.491 252.400,216.738 252.400 C 216.986 252.400,218.066 252.940,219.138 253.600 C 220.211 254.260,221.286 254.800,221.527 254.800 C 221.768 254.800,222.881 255.340,224.000 256.000 C 225.119 256.660,226.229 257.200,226.465 257.200 C 226.702 257.200,227.932 257.830,229.200 258.600 C 230.468 259.370,231.703 260.000,231.946 260.000 C 232.189 260.000,233.266 260.540,234.338 261.200 C 235.411 261.860,236.491 262.400,236.738 262.400 C 236.986 262.400,238.066 262.940,239.138 263.600 C 240.211 264.260,241.286 264.800,241.527 264.800 C 241.768 264.800,242.881 265.340,244.000 266.000 C 245.119 266.660,246.229 267.200,246.465 267.200 C 246.702 267.200,247.932 267.830,249.200 268.600 C 250.468 269.370,251.703 270.000,251.946 270.000 C 252.189 270.000,253.266 270.540,254.338 271.200 C 255.411 271.860,256.491 272.400,256.738 272.400 C 256.986 272.400,258.066 272.940,259.138 273.600 C 260.211 274.260,261.291 274.800,261.538 274.800 C 261.786 274.800,262.866 275.340,263.938 276.000 C 265.011 276.660,266.085 277.200,266.324 277.200 C 266.564 277.200,267.804 277.830,269.080 278.599 C 270.356 279.368,271.704 279.998,272.076 279.999 C 272.448 280.000,272.857 280.169,272.985 280.376 C 273.113 280.584,274.069 281.145,275.109 281.624 C 276.149 282.103,277.270 282.647,277.600 282.832 C 277.930 283.018,279.010 283.559,280.000 284.035 C 280.990 284.510,282.250 285.130,282.800 285.412 C 283.350 285.694,284.340 286.192,285.000 286.519 C 285.660 286.846,286.920 287.501,287.800 287.975 C 288.680 288.448,290.030 289.120,290.800 289.466 C 291.570 289.813,292.470 290.246,292.800 290.428 C 296.513 292.474,296.581 292.494,300.133 292.494 C 305.389 292.496,309.418 288.835,309.902 283.616 C 310.141 281.049,307.660 275.988,305.862 275.374 C 305.457 275.236,304.377 274.625,303.462 274.017 C 302.548 273.409,301.340 272.802,300.778 272.668 C 300.216 272.534,298.956 271.882,297.978 271.219 C 297.000 270.557,295.983 270.011,295.718 270.007 C 295.452 270.003,294.319 269.460,293.200 268.800 C 292.081 268.140,290.912 267.600,290.602 267.600 C 290.293 267.600,289.240 267.060,288.262 266.400 C 287.284 265.740,286.204 265.200,285.862 265.200 C 285.520 265.200,284.466 264.685,283.520 264.056 C 282.574 263.427,281.340 262.802,280.778 262.668 C 280.216 262.534,278.956 261.882,277.978 261.219 C 277.000 260.557,275.983 260.011,275.718 260.007 C 275.452 260.003,274.319 259.460,273.200 258.800 C 272.081 258.140,270.912 257.600,270.602 257.600 C 270.293 257.600,269.240 257.060,268.262 256.400 C 267.284 255.740,266.204 255.200,265.862 255.200 C 265.520 255.200,264.440 254.660,263.462 254.000 C 262.484 253.340,261.429 252.800,261.118 252.800 C 260.807 252.800,259.507 252.170,258.228 251.400 C 256.949 250.630,255.753 250.000,255.569 250.000 C 255.385 250.000,254.319 249.460,253.200 248.800 C 252.081 248.140,250.835 247.600,250.431 247.600 C 250.028 247.600,249.474 247.330,249.200 247.000 C 248.926 246.670,248.476 246.400,248.200 246.400 C 247.924 246.400,247.474 246.130,247.200 245.800 C 246.926 245.470,246.373 245.200,245.971 245.200 C 245.569 245.200,244.440 244.660,243.462 244.000 C 242.484 243.340,241.429 242.800,241.118 242.800 C 240.807 242.800,239.507 242.170,238.228 241.400 C 236.949 240.630,235.580 240.000,235.185 240.000 C 234.790 240.000,234.407 239.859,234.333 239.687 C 234.107 239.155,231.196 237.600,230.426 237.600 C 230.026 237.600,229.474 237.330,229.200 237.000 C 228.926 236.670,228.476 236.400,228.200 236.400 C 227.924 236.400,227.474 236.130,227.200 235.800 C 226.926 235.470,226.296 235.200,225.800 235.200 C 225.304 235.200,224.674 234.930,224.400 234.600 C 224.126 234.270,223.676 234.000,223.400 234.000 C 223.124 234.000,222.674 233.730,222.400 233.400 C 222.126 233.070,221.598 232.800,221.227 232.800 C 220.856 232.800,219.507 232.170,218.228 231.400 C 216.949 230.630,215.587 230.000,215.201 230.000 C 214.814 230.000,214.274 229.730,214.000 229.400 C 213.726 229.070,213.276 228.800,213.000 228.800 C 212.724 228.800,212.274 228.530,212.000 228.200 C 211.726 227.870,211.164 227.600,210.751 227.600 C 210.020 227.600,210.000 226.111,210.000 171.389 L 210.000 115.177 208.836 112.889 C 206.316 107.933,202.306 106.214,196.484 107.594 M5.952 307.557 C 4.720 307.736,3.587 308.259,2.552 309.126 C 1.699 309.842,0.775 310.609,0.500 310.830 C 0.145 311.115,0.000 312.776,0.000 316.549 L 0.000 321.867 1.300 323.342 C 3.920 326.315,4.602 326.400,25.966 326.400 C 45.287 326.400,45.996 326.461,43.984 327.948 C 43.333 328.430,42.800 329.089,42.800 329.412 C 42.800 329.735,42.649 330.000,42.464 330.000 C 42.279 330.000,39.446 333.105,36.168 336.900 C 29.280 344.873,28.269 346.002,26.500 347.700 C 25.785 348.386,25.200 349.112,25.200 349.313 C 25.200 349.514,24.705 350.174,24.100 350.780 C 22.550 352.332,21.192 353.865,15.227 360.806 C 13.812 362.453,12.102 364.376,11.427 365.081 C 10.752 365.785,9.660 367.022,9.000 367.829 C 7.762 369.344,6.372 370.917,4.433 373.000 C 3.819 373.660,2.570 375.161,1.658 376.336 L -0.000 378.472 -0.000 383.639 C -0.000 388.731,0.015 388.818,1.057 389.703 C 1.638 390.196,2.540 391.050,3.060 391.600 L 4.007 392.600 35.104 392.725 C 52.207 392.794,67.308 392.736,68.663 392.597 C 77.321 391.708,78.959 378.362,70.850 374.775 C 69.195 374.043,68.019 374.000,49.549 374.000 C 28.576 374.000,28.580 374.000,31.200 372.063 C 31.860 371.575,32.400 370.911,32.400 370.588 C 32.400 370.265,32.556 370.000,32.747 370.000 C 32.938 370.000,36.030 366.587,39.618 362.416 C 43.206 358.244,46.380 354.740,46.671 354.628 C 46.962 354.516,47.200 354.207,47.200 353.941 C 47.200 353.675,47.785 352.874,48.500 352.161 C 49.215 351.448,50.340 350.241,51.000 349.479 C 51.660 348.716,52.830 347.393,53.600 346.537 C 54.370 345.682,56.964 342.699,59.364 339.909 C 61.764 337.119,63.969 334.744,64.264 334.631 C 64.559 334.518,64.800 334.201,64.800 333.928 C 64.800 333.654,65.249 332.973,65.798 332.415 C 70.067 328.071,73.747 323.651,74.900 321.484 C 76.193 319.054,76.474 314.380,75.413 312.976 C 75.090 312.549,74.820 311.930,74.813 311.600 C 74.805 311.270,73.859 310.190,72.710 309.200 L 70.620 307.400 39.210 307.344 C 21.934 307.314,6.969 307.410,5.952 307.557 M329.694 315.160 C 326.730 315.673,323.453 319.643,322.947 323.332 C 322.561 326.153,324.963 331.551,326.900 332.214 C 327.285 332.346,327.600 332.684,327.600 332.966 C 327.600 333.247,328.185 334.095,328.900 334.849 C 331.147 337.222,335.787 342.488,338.194 345.400 C 339.468 346.940,341.070 348.784,341.755 349.497 C 342.440 350.210,343.540 351.437,344.200 352.223 C 344.860 353.009,345.895 354.130,346.500 354.715 C 347.105 355.300,347.600 356.002,347.600 356.275 C 347.600 356.548,347.961 356.965,348.401 357.201 C 349.218 357.638,348.625 359.041,346.969 360.595 C 346.731 360.818,344.910 362.890,342.920 365.200 C 340.931 367.510,338.920 369.743,338.451 370.162 C 337.983 370.581,337.600 371.172,337.600 371.475 C 337.600 371.777,337.348 372.122,337.039 372.240 C 336.730 372.359,335.310 373.838,333.883 375.528 C 332.456 377.218,330.683 379.257,329.944 380.060 C 322.179 388.492,321.238 391.759,324.963 397.371 C 326.736 400.041,326.612 400.000,332.841 400.000 L 338.017 400.000 340.234 397.700 C 343.089 394.737,343.803 393.942,346.429 390.809 C 349.713 386.890,350.102 386.435,351.400 384.991 C 353.699 382.434,356.738 378.991,357.924 377.600 C 361.157 373.809,362.463 372.602,362.695 373.192 C 362.823 373.518,363.439 374.233,364.064 374.781 C 364.689 375.330,365.200 376.014,365.200 376.302 C 365.200 376.590,365.450 376.921,365.755 377.038 C 366.060 377.155,369.212 380.614,372.760 384.725 C 376.308 388.836,379.433 392.432,379.705 392.716 C 379.977 392.999,380.694 393.809,381.299 394.516 C 381.903 395.222,383.276 396.745,384.349 397.900 L 386.300 400.000 391.597 400.000 L 396.894 400.000 398.447 398.447 L 400.000 396.894 400.000 391.509 C 400.000 386.525,399.937 386.067,399.151 385.362 C 398.683 384.943,396.222 382.170,393.680 379.200 C 391.139 376.230,388.596 373.314,388.030 372.719 C 387.463 372.124,386.479 371.025,385.843 370.276 C 385.206 369.527,384.126 368.284,383.443 367.513 C 382.021 365.910,377.919 361.273,376.090 359.200 L 374.854 357.800 375.797 357.000 C 376.316 356.560,379.206 353.320,382.219 349.800 C 385.232 346.280,388.171 342.907,388.749 342.304 C 389.327 341.702,390.295 340.622,390.899 339.904 C 391.918 338.695,393.843 336.512,395.577 334.600 C 395.976 334.160,397.134 332.849,398.151 331.687 L 400.000 329.573 400.000 324.187 C 400.000 318.335,400.212 318.970,397.410 316.429 C 395.803 314.971,391.922 314.575,387.687 315.436 C 386.416 315.695,384.140 317.985,377.788 325.400 C 372.245 331.871,371.249 332.977,368.900 335.275 C 368.185 335.975,367.600 336.680,367.600 336.843 C 367.600 337.005,367.103 337.647,366.495 338.269 C 365.887 338.891,364.654 340.272,363.755 341.338 L 362.120 343.276 357.007 337.338 C 354.194 334.072,351.479 330.950,350.974 330.400 C 350.468 329.850,349.436 328.701,348.681 327.847 C 347.925 326.992,346.968 325.912,346.553 325.447 C 344.452 323.086,342.426 320.753,340.855 318.885 C 337.944 315.423,334.607 314.310,329.694 315.160 " stroke="none" fill="#040404" fill-rule="evenodd"></path></g></svg>