<svg id="svg" version="1.1" xmlns="http://www.w3.org/2000/svg" xmlns:xlink="http://www.w3.org/1999/xlink" width="400" height="400" viewBox="0, 0, 400,400"><g id="svgg"><path id="path0" d="M316.333 230.086 C 290.080 265.773,263.372 302.075,256.983 310.758 C 250.594 319.441,245.129 326.624,244.839 326.720 C 244.539 326.820,233.901 316.491,220.154 302.751 L 195.996 278.605 180.299 294.303 L 164.601 310.000 207.093 352.493 C 244.263 389.663,249.657 394.911,250.156 394.393 C 250.736 393.789,394.008 198.971,395.123 197.269 C 395.723 196.352,395.483 196.086,380.169 180.769 C 371.608 172.206,364.483 165.200,364.335 165.200 C 364.187 165.200,342.586 194.399,316.333 230.086 " stroke="none" fill="#04fb23" fill-rule="evenodd"></path><path id="path1" d="M190.600 30.750 C 186.437 31.527,184.132 33.925,182.452 39.228 C 182.125 40.261,182.000 55.440,182.000 94.074 L 182.000 147.492 181.165 148.554 C 179.340 150.874,176.620 151.406,174.359 149.886 C 171.443 147.924,171.642 151.622,171.610 98.600 C 171.579 45.462,171.781 49.332,168.876 46.263 C 164.600 41.744,148.359 41.667,143.882 46.144 C 140.747 49.280,141.024 43.912,140.800 105.800 C 140.607 159.178,140.575 161.037,139.841 162.120 C 137.822 165.099,133.595 165.175,131.439 162.271 C 130.604 161.147,130.599 160.963,130.400 121.871 C 130.178 78.267,130.417 81.869,127.529 78.580 C 124.914 75.602,123.406 75.200,114.864 75.200 C 105.413 75.200,102.877 76.178,100.347 80.800 C 99.891 81.634,99.755 97.341,99.528 175.400 C 99.379 226.880,99.226 269.810,99.189 270.800 C 98.771 281.860,104.761 299.664,111.388 307.060 C 111.615 307.313,112.694 308.573,113.787 309.860 C 116.621 313.198,121.661 317.672,125.500 320.258 L 128.800 322.481 128.800 338.829 L 128.800 355.177 129.750 357.289 C 130.848 359.729,132.671 361.696,134.979 362.932 C 136.599 363.799,136.622 363.800,172.200 364.000 L 207.800 364.200 225.705 382.110 L 243.610 400.021 249.695 399.910 L 255.780 399.800 259.901 394.200 C 262.168 391.120,265.274 386.890,266.802 384.800 C 268.331 382.710,271.791 377.999,274.491 374.332 C 277.191 370.664,283.270 362.398,288.000 355.963 C 292.730 349.528,298.267 341.999,300.303 339.232 C 302.340 336.464,305.326 332.400,306.939 330.200 C 308.552 328.000,312.066 323.230,314.748 319.600 C 317.430 315.970,321.593 310.300,324.000 307.000 C 326.407 303.700,330.570 298.030,333.251 294.400 C 338.552 287.224,341.650 283.014,348.410 273.800 C 350.831 270.500,354.340 265.730,356.209 263.200 C 358.077 260.670,361.582 255.900,363.998 252.600 C 366.414 249.300,369.925 244.530,371.800 242.000 C 373.675 239.470,377.186 234.700,379.602 231.400 C 382.018 228.100,385.931 222.767,388.297 219.549 C 390.664 216.330,394.265 211.426,396.300 208.651 L 400.000 203.605 399.994 196.503 L 399.987 189.400 382.263 171.700 C 362.320 151.784,363.701 152.770,360.963 156.500 C 359.954 157.875,356.760 162.216,353.864 166.147 C 347.668 174.558,341.456 183.000,337.007 189.055 C 335.251 191.445,329.509 199.250,324.248 206.400 C 318.988 213.550,311.514 223.716,307.642 228.992 L 300.600 238.584 300.400 201.174 C 300.180 159.955,300.389 163.297,297.847 160.452 C 295.269 157.568,294.637 157.412,284.943 157.273 C 274.786 157.127,273.692 157.314,271.039 159.649 C 267.160 163.064,267.428 160.835,267.200 191.600 C 267.017 216.240,266.939 218.711,266.306 219.868 C 264.008 224.069,258.075 224.030,255.708 219.800 L 254.813 218.200 254.803 134.800 L 254.792 51.400 253.829 49.330 C 251.371 44.052,249.362 43.200,239.374 43.200 C 229.568 43.200,227.408 44.048,224.974 48.851 L 224.000 50.773 223.984 98.287 L 223.967 145.800 223.084 147.576 C 221.352 151.057,217.630 151.710,214.928 149.008 L 213.600 147.680 213.586 94.540 C 213.571 37.928,213.593 38.622,211.666 35.509 C 210.622 33.821,208.962 32.296,207.200 31.404 C 205.659 30.623,193.786 30.156,190.600 30.750 M380.169 180.769 C 395.483 196.086,395.723 196.352,395.123 197.269 C 394.008 198.971,250.736 393.789,250.156 394.393 C 249.657 394.911,244.263 389.663,207.093 352.493 L 164.601 310.000 180.299 294.303 L 195.996 278.605 220.154 302.751 C 233.901 316.491,244.539 326.820,244.839 326.720 C 245.129 326.624,250.594 319.441,256.983 310.758 C 263.372 302.075,290.080 265.773,316.333 230.086 C 342.586 194.399,364.187 165.200,364.335 165.200 C 364.483 165.200,371.608 172.206,380.169 180.769 " stroke="none" fill="#040404" fill-rule="evenodd"></path></g></svg>