<svg id="svg" version="1.1" xmlns="http://www.w3.org/2000/svg" xmlns:xlink="http://www.w3.org/1999/xlink" width="400" height="400" viewBox="0, 0, 400,400"><g id="svgg"><path id="path0" d="M180.200 180.400 L 164.605 195.999 206.302 237.704 C 229.236 260.642,248.000 279.675,248.000 280.000 C 248.000 280.325,229.236 299.358,206.302 322.296 L 164.603 364.002 180.301 379.699 L 195.998 395.397 237.704 353.698 C 260.642 330.764,279.675 312.000,280.000 312.000 C 280.325 312.000,299.358 330.764,322.296 353.698 L 364.002 395.397 379.699 379.699 L 395.397 364.002 353.698 322.296 C 330.764 299.358,312.000 280.325,312.000 280.000 C 312.000 279.675,330.764 260.642,353.698 237.704 L 395.397 195.998 379.699 180.301 L 364.002 164.603 322.296 206.302 C 299.358 229.236,280.325 248.000,280.000 248.000 C 279.675 248.000,260.686 229.280,237.802 206.400 C 214.918 183.520,196.105 164.800,195.995 164.800 C 195.886 164.800,188.778 171.820,180.200 180.400 " stroke="none" fill="#fb0404" fill-rule="evenodd"></path><path id="path1" d="M176.000 49.145 C 175.670 49.336,174.442 49.600,173.271 49.731 C 172.100 49.862,170.480 50.183,169.671 50.445 C 148.340 57.342,136.762 71.175,141.620 83.957 C 146.452 96.669,161.473 99.670,171.800 89.987 C 176.130 85.927,179.195 84.638,183.969 84.867 C 199.841 85.628,204.061 106.918,189.690 113.726 L 187.000 115.000 108.400 115.200 C 36.731 115.382,29.633 115.458,27.904 116.060 C 11.185 121.876,11.291 144.880,28.063 150.574 C 30.367 151.356,189.142 151.299,193.241 150.514 C 209.191 147.461,223.434 136.109,230.313 120.968 C 231.021 119.411,231.600 117.872,231.600 117.548 C 231.600 117.225,231.761 116.789,231.958 116.580 C 232.300 116.216,232.819 114.295,233.625 110.400 C 235.227 102.668,234.969 95.128,232.784 85.800 C 232.527 84.700,232.155 83.629,231.958 83.420 C 231.761 83.211,231.600 82.775,231.600 82.452 C 231.600 82.128,231.021 80.589,230.313 79.032 C 223.401 63.818,209.017 52.363,193.241 49.510 C 190.321 48.981,176.777 48.695,176.000 49.145 M309.400 82.356 C 308.960 82.539,307.250 82.813,305.600 82.967 C 303.950 83.120,302.060 83.410,301.400 83.610 C 300.740 83.810,299.120 84.282,297.800 84.657 C 283.739 88.662,267.410 100.134,263.152 109.000 C 259.182 117.265,262.947 128.663,270.928 132.539 C 278.987 136.454,286.127 135.116,293.200 128.365 C 306.181 115.976,322.889 114.508,336.000 124.603 C 341.542 128.870,347.600 138.004,347.600 142.092 C 347.600 142.613,347.799 143.239,348.042 143.482 C 348.327 143.767,348.485 146.095,348.485 150.000 C 348.485 153.905,348.327 156.233,348.042 156.518 C 347.799 156.761,347.600 157.387,347.600 157.908 C 347.600 162.565,340.763 172.170,334.375 176.489 C 325.949 182.184,328.027 182.000,272.111 182.000 L 224.587 182.000 210.764 168.200 C 200.492 157.945,196.701 154.400,196.006 154.400 C 195.311 154.400,191.519 157.946,181.247 168.200 L 167.424 182.000 99.012 182.003 C 22.855 182.006,28.173 181.821,23.854 184.631 C 10.971 193.015,13.314 212.333,27.802 217.178 C 30.167 217.969,31.212 217.980,102.810 217.990 L 175.419 218.000 190.710 233.277 C 199.119 241.679,206.000 248.609,206.000 248.677 C 206.000 248.745,166.352 248.800,117.894 248.800 C 31.876 248.800,29.739 248.818,27.678 249.571 C 11.207 255.592,11.356 278.183,27.904 283.940 C 29.640 284.544,38.340 284.617,131.119 284.800 L 232.437 285.000 222.735 294.700 L 213.033 304.400 208.885 304.400 C 198.020 304.400,190.801 311.592,190.800 322.415 L 190.800 326.630 172.600 344.840 C 158.673 358.776,154.400 363.277,154.400 364.015 C 154.400 364.752,158.519 369.102,171.894 382.489 L 189.388 400.000 195.994 399.995 L 202.600 399.990 229.600 372.977 C 249.877 352.690,257.148 345.659,258.800 344.737 C 265.926 340.764,273.402 333.258,278.163 325.300 C 278.985 323.925,279.786 322.800,279.943 322.800 C 280.100 322.800,297.592 340.167,318.814 361.394 L 357.400 399.989 364.002 399.994 L 370.604 400.000 385.302 385.298 L 400.000 370.596 400.000 364.016 L 400.000 357.436 361.500 318.933 C 340.325 297.757,323.000 280.237,323.000 280.000 C 323.000 279.763,340.325 262.243,361.500 241.067 L 400.000 202.564 399.996 195.982 L 399.992 189.400 390.764 180.208 C 382.694 172.169,381.562 170.890,381.740 170.008 C 381.852 169.454,382.240 167.830,382.603 166.400 C 389.164 140.546,379.918 113.780,358.361 96.217 C 354.890 93.389,346.657 88.665,342.192 86.939 C 336.445 84.718,333.325 83.846,327.800 82.919 C 323.778 82.244,310.641 81.842,309.400 82.356 M237.802 206.400 C 260.686 229.280,279.675 248.000,280.000 248.000 C 280.325 248.000,299.358 229.236,322.296 206.302 L 364.002 164.603 379.699 180.301 L 395.397 195.998 353.698 237.704 C 330.764 260.642,312.000 279.675,312.000 280.000 C 312.000 280.325,330.764 299.358,353.698 322.296 L 395.397 364.002 379.699 379.699 L 364.002 395.397 322.296 353.698 C 299.358 330.764,280.325 312.000,280.000 312.000 C 279.675 312.000,260.642 330.764,237.704 353.698 L 195.998 395.397 180.301 379.699 L 164.603 364.002 206.302 322.296 C 229.236 299.358,248.000 280.325,248.000 280.000 C 248.000 279.675,229.236 260.642,206.302 237.704 L 164.605 195.999 180.200 180.400 C 188.778 171.820,195.886 164.800,195.995 164.800 C 196.105 164.800,214.918 183.520,237.802 206.400 M297.583 219.825 C 290.689 226.880,280.328 237.000,280.000 237.000 C 279.672 237.000,269.311 226.880,262.417 219.825 L 260.633 218.000 280.000 218.000 L 299.367 218.000 297.583 219.825 " stroke="none" fill="#040404" fill-rule="evenodd"></path></g></svg>