<svg id="svg" version="1.1" xmlns="http://www.w3.org/2000/svg" xmlns:xlink="http://www.w3.org/1999/xlink" width="400" height="400" viewBox="0, 0, 400,400"><g id="svgg"><path id="path0" d="M180.200 180.400 L 164.605 195.999 206.302 237.704 C 229.236 260.642,248.000 279.675,248.000 280.000 C 248.000 280.325,229.236 299.358,206.302 322.296 L 164.603 364.002 180.301 379.699 L 195.998 395.397 237.704 353.698 C 260.642 330.764,279.675 312.000,280.000 312.000 C 280.325 312.000,299.358 330.764,322.296 353.698 L 364.002 395.397 379.699 379.699 L 395.397 364.002 353.698 322.296 C 330.764 299.358,312.000 280.325,312.000 280.000 C 312.000 279.675,330.764 260.642,353.698 237.704 L 395.397 195.998 379.699 180.301 L 364.002 164.603 322.296 206.302 C 299.358 229.236,280.325 248.000,280.000 248.000 C 279.675 248.000,260.686 229.280,237.802 206.400 C 214.918 183.520,196.105 164.800,195.995 164.800 C 195.886 164.800,188.778 171.820,180.200 180.400 " stroke="none" fill="#fb0404" fill-rule="evenodd"></path><path id="path1" d="M326.200 34.846 C 287.291 47.869,261.404 56.339,260.800 56.243 C 260.250 56.156,258.540 55.781,257.000 55.409 C 253.816 54.640,250.573 53.887,246.800 53.041 C 245.370 52.720,243.840 52.359,243.400 52.238 C 242.096 51.881,232.841 49.713,229.600 49.005 C 227.950 48.645,225.970 48.184,225.200 47.980 C 224.430 47.777,221.460 47.064,218.600 46.395 C 215.740 45.727,213.040 45.082,212.600 44.962 C 212.160 44.841,210.630 44.480,209.200 44.159 C 204.277 43.055,198.278 41.647,194.800 40.778 C 194.030 40.586,192.140 40.143,190.600 39.795 C 187.993 39.206,186.404 38.841,180.200 37.408 C 178.880 37.103,175.910 36.386,173.600 35.814 C 171.290 35.243,168.230 34.519,166.800 34.206 C 165.370 33.893,163.030 33.349,161.600 32.998 C 160.170 32.646,158.249 32.196,157.332 31.997 C 156.414 31.798,154.164 31.258,152.332 30.797 C 150.499 30.335,148.280 29.796,147.400 29.599 C 146.520 29.402,144.540 28.937,143.000 28.567 C 139.499 27.725,136.543 27.713,133.200 28.527 C 131.770 28.875,129.250 29.455,127.600 29.816 C 125.950 30.176,123.970 30.615,123.200 30.792 C 117.604 32.073,115.454 32.555,113.000 33.081 C 109.502 33.830,106.212 34.560,102.600 35.389 C 97.978 36.449,96.326 36.817,93.600 37.397 C 91.220 37.903,89.623 38.254,82.600 39.813 C 81.280 40.107,78.940 40.635,77.400 40.989 C 71.593 42.321,68.628 42.970,63.800 43.969 C 62.700 44.197,61.080 44.559,60.200 44.773 C 59.320 44.987,56.080 45.719,53.000 46.399 C 49.920 47.079,46.860 47.792,46.200 47.985 C 45.540 48.178,44.190 48.455,43.200 48.600 C 42.210 48.745,40.860 49.021,40.200 49.213 C 39.540 49.405,37.650 49.850,36.000 50.202 C 33.237 50.792,30.276 51.452,26.200 52.387 C 25.320 52.589,22.800 53.134,20.600 53.597 C 18.400 54.061,15.970 54.602,15.200 54.801 C 14.430 54.999,12.450 55.449,10.800 55.800 C 8.061 56.383,6.747 56.700,4.056 57.427 C 3.536 57.567,2.411 58.314,1.556 59.088 L 0.000 60.493 0.000 221.768 L 0.000 383.043 1.300 384.274 C 4.126 386.950,6.656 387.306,12.800 385.895 C 17.340 384.852,21.349 383.924,23.000 383.535 C 24.701 383.134,28.021 382.411,32.600 381.442 C 38.273 380.242,43.133 379.155,47.200 378.177 C 48.630 377.833,51.060 377.284,52.600 376.958 C 54.140 376.632,56.570 376.118,58.000 375.815 C 59.430 375.511,61.860 374.972,63.400 374.616 C 69.011 373.319,72.333 372.579,77.600 371.452 C 79.250 371.099,81.770 370.538,83.200 370.205 C 84.630 369.872,86.610 369.426,87.600 369.214 C 88.590 369.003,90.660 368.539,92.200 368.183 C 93.740 367.827,96.170 367.291,97.600 366.992 C 101.874 366.097,107.247 364.891,113.000 363.535 C 114.525 363.176,116.675 362.708,122.700 361.425 C 125.700 360.786,130.650 359.700,132.800 359.209 C 138.842 357.830,138.436 357.857,142.400 358.572 C 144.490 358.949,146.830 359.412,147.600 359.601 C 148.370 359.789,150.080 360.059,151.400 360.200 C 155.539 360.642,156.438 361.162,155.200 362.400 C 153.522 364.078,153.626 364.204,171.894 382.489 L 189.388 400.000 195.994 399.994 L 202.600 399.989 215.586 386.994 C 222.728 379.847,228.758 374.004,228.986 374.008 C 229.214 374.012,230.930 374.284,232.800 374.611 C 234.670 374.938,237.820 375.489,239.800 375.835 C 244.336 376.630,249.088 377.444,252.259 377.970 C 253.612 378.194,255.502 378.558,256.459 378.779 C 259.567 379.496,264.508 379.297,266.667 378.369 C 267.730 377.912,270.760 376.724,273.400 375.728 C 276.040 374.733,278.723 373.667,279.361 373.359 C 280.000 373.052,280.693 372.800,280.901 372.800 C 281.109 372.800,281.846 372.537,282.540 372.215 C 283.233 371.893,286.680 370.536,290.200 369.200 C 293.720 367.864,297.140 366.526,297.800 366.227 C 298.460 365.929,301.880 364.599,305.400 363.273 C 308.920 361.947,312.670 360.488,313.733 360.031 C 314.796 359.574,315.883 359.200,316.148 359.200 C 316.413 359.200,325.803 368.378,337.015 379.595 L 357.400 399.989 364.002 399.995 L 370.604 400.000 385.302 385.298 L 400.000 370.596 400.000 364.021 L 400.000 357.446 389.107 346.543 C 376.750 334.175,377.511 335.133,379.494 334.434 C 387.822 331.500,397.547 327.316,398.700 326.171 L 400.000 324.880 400.000 170.918 L 400.000 16.957 398.700 15.734 C 394.361 11.652,399.718 10.240,326.200 34.846 M151.600 48.389 C 153.250 48.805,155.860 49.430,157.400 49.780 C 158.940 50.129,160.830 50.596,161.600 50.819 C 162.370 51.041,163.810 51.389,164.800 51.591 C 166.980 52.037,171.680 53.098,173.600 53.578 C 174.370 53.770,176.170 54.195,177.600 54.522 C 179.030 54.849,180.470 55.210,180.800 55.325 C 181.130 55.439,183.200 55.917,185.400 56.386 C 187.600 56.856,190.030 57.409,190.800 57.615 C 191.570 57.821,194.540 58.536,197.400 59.205 C 200.260 59.873,202.960 60.518,203.400 60.638 C 203.840 60.759,205.326 61.111,206.701 61.422 C 210.960 62.383,214.539 63.213,216.000 63.578 C 219.478 64.447,225.477 65.855,230.400 66.959 C 231.830 67.280,233.360 67.641,233.800 67.762 C 234.909 68.065,243.963 70.197,247.600 71.011 C 249.250 71.380,251.185 71.858,251.900 72.072 L 253.200 72.462 253.200 141.498 C 253.200 179.467,253.115 210.458,253.011 210.367 C 252.907 210.275,240.252 197.645,224.888 182.300 C 203.498 160.936,196.731 154.400,195.998 154.400 C 194.628 154.400,154.400 194.646,154.400 196.017 C 154.400 196.732,164.328 206.888,195.700 238.265 C 218.415 260.984,237.000 279.766,237.000 280.003 C 237.000 280.561,171.562 346.003,171.015 345.992 C 170.787 345.988,169.070 345.716,167.200 345.389 C 165.330 345.062,162.180 344.511,160.200 344.165 C 153.791 343.043,149.833 342.369,148.300 342.140 L 146.800 341.916 146.800 194.511 L 146.800 47.107 147.700 47.370 C 148.195 47.515,149.950 47.973,151.600 48.389 M237.802 206.400 C 260.686 229.280,279.675 248.000,280.000 248.000 C 280.325 248.000,299.358 229.236,322.296 206.302 L 364.002 164.603 379.699 180.301 L 395.397 195.998 353.698 237.704 C 330.764 260.642,312.000 279.675,312.000 280.000 C 312.000 280.325,330.764 299.358,353.698 322.296 L 395.397 364.002 379.699 379.699 L 364.002 395.397 322.296 353.698 C 299.358 330.764,280.325 312.000,280.000 312.000 C 279.675 312.000,260.642 330.764,237.704 353.698 L 195.998 395.397 180.301 379.699 L 164.603 364.002 206.302 322.296 C 229.236 299.358,248.000 280.325,248.000 280.000 C 248.000 279.675,229.236 260.642,206.302 237.704 L 164.605 195.999 180.200 180.400 C 188.778 171.820,195.886 164.800,195.995 164.800 C 196.105 164.800,214.918 183.520,237.802 206.400 M253.072 360.261 C 252.928 360.405,247.499 359.748,245.800 359.380 C 243.762 358.939,243.941 358.586,248.492 354.067 L 253.000 349.591 253.112 354.850 C 253.174 357.743,253.156 360.178,253.072 360.261 " stroke="none" fill="#040404" fill-rule="evenodd"></path></g></svg>