<svg id="svg" version="1.1" xmlns="http://www.w3.org/2000/svg" xmlns:xlink="http://www.w3.org/1999/xlink" width="400" height="400" viewBox="0, 0, 400,400"><g id="svgg"><path id="path0" d="M316.333 230.086 C 290.080 265.773,263.372 302.075,256.983 310.758 C 250.594 319.441,245.129 326.624,244.839 326.720 C 244.539 326.820,233.901 316.491,220.154 302.751 L 195.996 278.605 180.299 294.303 L 164.601 310.000 207.093 352.493 C 244.263 389.663,249.657 394.911,250.156 394.393 C 250.736 393.789,394.008 198.971,395.123 197.269 C 395.723 196.352,395.483 196.086,380.169 180.769 C 371.608 172.206,364.483 165.200,364.335 165.200 C 364.187 165.200,342.586 194.399,316.333 230.086 " stroke="none" fill="#04fb23" fill-rule="evenodd"></path><path id="path1" d="M326.200 34.846 C 287.291 47.869,261.404 56.339,260.800 56.243 C 260.250 56.156,258.540 55.781,257.000 55.409 C 253.816 54.640,250.573 53.887,246.800 53.041 C 245.370 52.720,243.840 52.359,243.400 52.238 C 242.096 51.881,232.841 49.713,229.600 49.005 C 227.950 48.645,225.970 48.184,225.200 47.980 C 224.430 47.777,221.460 47.064,218.600 46.395 C 215.740 45.727,213.040 45.082,212.600 44.962 C 212.160 44.841,210.630 44.480,209.200 44.159 C 204.277 43.055,198.278 41.647,194.800 40.778 C 194.030 40.586,192.140 40.143,190.600 39.795 C 187.993 39.206,186.404 38.841,180.200 37.408 C 178.880 37.103,175.910 36.386,173.600 35.814 C 171.290 35.243,168.230 34.519,166.800 34.206 C 165.370 33.893,163.030 33.349,161.600 32.998 C 160.170 32.646,158.249 32.196,157.332 31.997 C 156.414 31.798,154.164 31.258,152.332 30.797 C 150.499 30.335,148.280 29.796,147.400 29.599 C 146.520 29.402,144.540 28.937,143.000 28.567 C 139.499 27.725,136.543 27.713,133.200 28.527 C 131.770 28.875,129.250 29.455,127.600 29.816 C 125.950 30.176,123.970 30.615,123.200 30.792 C 117.604 32.073,115.454 32.555,113.000 33.081 C 109.502 33.830,106.212 34.560,102.600 35.389 C 97.978 36.449,96.326 36.817,93.600 37.397 C 91.220 37.903,89.623 38.254,82.600 39.813 C 81.280 40.107,78.940 40.635,77.400 40.989 C 71.593 42.321,68.628 42.970,63.800 43.969 C 62.700 44.197,61.080 44.559,60.200 44.773 C 59.320 44.987,56.080 45.719,53.000 46.399 C 49.920 47.079,46.860 47.792,46.200 47.985 C 45.540 48.178,44.190 48.455,43.200 48.600 C 42.210 48.745,40.860 49.021,40.200 49.213 C 39.540 49.405,37.650 49.850,36.000 50.202 C 33.237 50.792,30.276 51.452,26.200 52.387 C 25.320 52.589,22.800 53.134,20.600 53.597 C 18.400 54.061,15.970 54.602,15.200 54.801 C 14.430 54.999,12.450 55.449,10.800 55.800 C 8.061 56.383,6.747 56.700,4.056 57.427 C 3.536 57.567,2.411 58.314,1.556 59.088 L 0.000 60.493 0.000 221.768 L 0.000 383.043 1.300 384.274 C 4.126 386.950,6.656 387.306,12.800 385.895 C 17.340 384.852,21.349 383.924,23.000 383.535 C 24.701 383.134,28.021 382.411,32.600 381.442 C 38.273 380.242,43.133 379.155,47.200 378.177 C 48.630 377.833,51.060 377.284,52.600 376.958 C 54.140 376.632,56.570 376.118,58.000 375.815 C 59.430 375.511,61.860 374.972,63.400 374.616 C 69.011 373.319,72.333 372.579,77.600 371.452 C 79.250 371.099,81.770 370.538,83.200 370.205 C 84.630 369.872,86.610 369.426,87.600 369.214 C 88.590 369.003,90.660 368.539,92.200 368.183 C 93.740 367.827,96.170 367.291,97.600 366.992 C 101.874 366.097,107.247 364.891,113.000 363.535 C 114.525 363.176,116.675 362.708,122.700 361.425 C 126.014 360.719,130.919 359.641,132.800 359.204 C 139.183 357.722,138.070 357.690,147.800 359.632 C 148.900 359.851,150.970 360.213,152.400 360.435 C 153.830 360.657,156.440 361.093,158.200 361.404 C 159.960 361.715,163.020 362.243,165.000 362.578 C 166.980 362.914,169.500 363.365,170.600 363.582 C 173.554 364.164,178.925 365.137,182.900 365.808 C 184.825 366.134,187.975 366.666,189.900 366.992 C 191.825 367.317,194.930 367.864,196.800 368.208 C 198.670 368.551,201.100 368.990,202.200 369.183 C 203.300 369.376,205.910 369.838,208.000 370.210 C 210.090 370.581,212.494 370.977,213.341 371.089 C 214.745 371.274,216.167 372.576,229.235 385.646 L 243.587 400.000 249.594 400.000 L 255.602 400.000 258.477 396.100 C 260.059 393.955,262.545 390.580,264.002 388.600 C 265.460 386.620,268.203 382.906,270.098 380.347 L 273.543 375.693 276.472 374.574 C 278.082 373.959,279.571 373.308,279.780 373.128 C 279.989 372.947,280.412 372.800,280.720 372.800 C 281.027 372.800,281.846 372.537,282.540 372.215 C 283.233 371.893,286.680 370.540,290.200 369.207 C 293.720 367.875,296.960 366.608,297.400 366.393 C 297.840 366.177,301.440 364.761,305.400 363.247 C 312.349 360.589,322.632 356.599,335.600 351.528 C 339.010 350.195,344.590 348.025,348.000 346.706 C 351.410 345.387,355.010 343.991,356.000 343.604 C 356.990 343.217,360.680 341.796,364.200 340.448 C 367.720 339.100,370.960 337.836,371.400 337.641 C 371.840 337.445,374.540 336.382,377.400 335.278 C 394.663 328.617,397.421 327.438,398.700 326.169 L 400.000 324.880 400.000 170.918 L 400.000 16.957 398.700 15.734 C 394.361 11.652,399.718 10.240,326.200 34.846 M151.600 48.389 C 153.250 48.805,155.860 49.430,157.400 49.780 C 158.940 50.129,160.830 50.596,161.600 50.819 C 162.370 51.041,163.810 51.389,164.800 51.591 C 166.980 52.037,171.680 53.098,173.600 53.578 C 174.370 53.770,176.170 54.195,177.600 54.522 C 179.030 54.849,180.470 55.210,180.800 55.325 C 181.130 55.439,183.200 55.917,185.400 56.386 C 187.600 56.856,190.030 57.409,190.800 57.615 C 191.570 57.821,194.540 58.536,197.400 59.205 C 200.260 59.873,202.960 60.518,203.400 60.638 C 203.840 60.759,205.326 61.111,206.701 61.422 C 210.960 62.383,214.539 63.213,216.000 63.578 C 219.478 64.447,225.477 65.855,230.400 66.959 C 231.830 67.280,233.360 67.641,233.800 67.762 C 234.909 68.065,243.963 70.197,247.600 71.011 C 249.250 71.380,251.185 71.858,251.900 72.072 L 253.200 72.462 253.200 187.746 L 253.200 303.030 248.790 309.015 C 246.365 312.307,244.228 315.053,244.040 315.117 C 243.852 315.181,233.159 304.696,220.276 291.817 C 205.098 276.642,196.575 268.400,196.063 268.400 C 195.015 268.400,154.400 308.993,154.400 310.041 C 154.400 310.494,162.052 318.446,173.829 330.231 C 184.516 340.925,193.191 349.742,193.108 349.826 C 193.025 349.909,191.976 349.799,190.778 349.582 C 189.580 349.365,186.980 348.911,185.000 348.573 C 179.648 347.659,175.282 346.884,167.200 345.413 C 160.866 344.261,150.642 342.490,148.300 342.140 L 146.800 341.916 146.800 194.511 L 146.800 47.107 147.700 47.370 C 148.195 47.515,149.950 47.973,151.600 48.389 M380.169 180.769 C 395.483 196.086,395.723 196.352,395.123 197.269 C 394.008 198.971,250.736 393.789,250.156 394.393 C 249.657 394.911,244.263 389.663,207.093 352.493 L 164.601 310.000 180.299 294.303 L 195.996 278.605 220.154 302.751 C 233.901 316.491,244.539 326.820,244.839 326.720 C 245.129 326.624,250.594 319.441,256.983 310.758 C 263.372 302.075,290.080 265.773,316.333 230.086 C 342.586 194.399,364.187 165.200,364.335 165.200 C 364.483 165.200,371.608 172.206,380.169 180.769 " stroke="none" fill="#040404" fill-rule="evenodd"></path></g></svg>