<svg id="svg" version="1.1" xmlns="http://www.w3.org/2000/svg" xmlns:xlink="http://www.w3.org/1999/xlink" width="400" height="400" viewBox="0, 0, 400,400"><g id="svgg"><path id="path0" d="M29.400 15.264 C 23.858 18.133,24.019 17.107,24.009 49.700 L 24.000 77.600 20.024 77.600 C 17.804 77.600,15.938 77.777,15.800 78.000 C 15.664 78.220,15.194 78.400,14.756 78.400 C 12.832 78.400,12.800 78.947,12.806 111.487 C 12.812 144.515,12.707 143.032,15.165 144.688 L 16.518 145.600 58.409 145.600 C 94.622 145.600,100.530 145.519,102.000 145.000 C 104.500 144.118,130.300 144.118,132.800 145.000 C 136.991 146.479,142.483 145.347,143.839 142.724 C 144.817 140.833,144.624 121.347,143.595 118.064 C 142.482 114.513,142.482 107.487,143.595 103.936 C 145.412 98.137,144.609 79.216,142.518 78.565 C 142.123 78.442,141.487 78.175,141.105 77.971 C 140.723 77.767,138.878 77.600,137.005 77.600 L 133.600 77.600 133.594 50.100 C 133.587 20.072,133.667 21.136,131.192 17.894 C 128.284 14.086,132.988 14.398,78.689 14.418 C 31.254 14.435,30.991 14.440,29.400 15.264 M117.600 54.000 L 117.600 77.600 78.800 77.600 L 40.000 77.600 40.000 54.000 L 40.000 30.400 78.800 30.400 L 117.600 30.400 117.600 54.000 M82.400 97.895 C 90.709 99.573,93.352 105.227,88.200 110.303 L 85.600 112.865 85.600 121.432 L 85.600 130.000 79.200 130.000 L 72.800 130.000 72.800 121.480 C 72.800 112.691,72.680 112.000,71.152 112.000 C 69.173 112.000,65.539 106.409,66.432 104.739 C 66.635 104.362,66.800 103.716,66.800 103.305 C 66.800 101.748,72.064 98.006,74.271 97.994 C 74.892 97.991,75.670 97.805,76.000 97.582 C 76.634 97.153,79.397 97.288,82.400 97.895 " stroke="none" fill="#fc0404" fill-rule="evenodd"></path><path id="path1" d="M245.360 1.160 C 244.502 1.798,221.358 24.793,193.929 52.260 C 136.953 109.316,142.800 102.598,142.800 111.000 C 142.800 119.460,133.880 109.617,215.929 191.700 C 255.458 231.245,288.009 263.600,288.266 263.600 C 288.523 263.600,288.818 263.825,288.922 264.100 C 289.118 264.622,396.793 157.397,398.841 154.640 L 400.000 153.080 400.000 145.950 L 400.000 138.821 397.645 136.110 C 393.924 131.829,376.000 114.265,373.911 112.853 C 370.200 110.345,362.555 110.205,358.945 112.579 C 356.151 114.416,349.587 118.979,348.125 120.100 C 347.336 120.705,346.473 121.200,346.207 121.200 C 345.941 121.200,345.410 121.547,345.026 121.972 C 344.642 122.396,343.759 123.034,343.064 123.390 C 342.369 123.745,340.540 124.936,339.000 126.036 C 337.460 127.135,334.670 129.055,332.800 130.302 C 330.930 131.548,328.054 133.531,326.408 134.707 C 323.247 136.967,322.555 136.956,324.076 134.668 C 328.069 128.664,333.002 121.342,333.278 121.007 C 333.838 120.329,335.480 117.898,336.544 116.174 C 337.096 115.279,338.929 112.579,340.618 110.174 C 342.307 107.768,343.790 105.530,343.914 105.200 C 344.038 104.870,344.648 103.974,345.270 103.209 C 345.891 102.444,346.400 101.662,346.400 101.471 C 346.400 101.280,346.773 100.600,347.228 99.960 C 349.360 96.966,349.497 91.298,347.537 87.200 C 345.385 82.702,299.878 37.455,295.428 35.388 C 290.688 33.187,287.047 33.467,281.461 36.460 C 280.116 37.180,280.136 36.667,281.600 33.000 C 282.764 30.084,282.984 29.162,282.984 27.200 C 282.984 25.044,282.684 23.952,281.136 20.469 C 280.330 18.655,269.090 6.843,263.890 2.345 L 261.179 0.000 254.050 0.000 L 246.920 -0.000 245.360 1.160 M102.000 144.985 C 100.187 145.669,84.527 161.382,82.620 164.431 C 79.971 168.667,80.261 175.384,83.273 179.543 C 84.172 180.784,92.230 189.180,101.179 198.200 C 116.550 213.691,117.531 214.766,118.877 217.600 C 120.724 221.488,121.321 223.075,121.089 223.476 C 120.986 223.654,121.052 225.020,121.236 226.511 C 122.496 236.695,117.637 245.900,108.204 251.198 C 106.745 252.017,106.252 252.335,102.735 254.730 C 101.709 255.429,100.768 256.000,100.645 256.000 C 100.521 256.000,98.718 257.154,96.638 258.564 C 94.558 259.974,92.483 261.247,92.028 261.391 C 91.573 261.536,91.200 261.789,91.200 261.953 C 91.200 262.118,90.435 262.677,89.500 263.196 C 88.565 263.715,87.260 264.514,86.600 264.971 C 85.940 265.428,85.112 265.982,84.760 266.201 C 83.529 266.968,80.584 268.901,78.597 270.245 C 77.495 270.990,76.385 271.600,76.130 271.600 C 75.875 271.600,75.607 271.740,75.533 271.911 C 75.413 272.191,64.018 279.920,63.017 280.400 C 62.634 280.584,46.283 291.493,37.800 297.225 C 35.820 298.563,33.828 300.004,33.374 300.429 C 32.920 300.853,32.441 301.200,32.309 301.200 C 32.178 301.200,30.029 302.655,27.535 304.433 C 25.041 306.211,22.575 307.966,22.056 308.333 C 21.536 308.700,20.906 309.180,20.655 309.400 C 20.404 309.620,19.299 310.510,18.199 311.377 C 13.013 315.468,3.600 326.669,3.600 328.750 C 3.600 328.988,3.060 330.180,2.400 331.400 C 1.740 332.620,1.200 334.028,1.200 334.529 C 1.200 335.030,0.975 335.665,0.700 335.939 C -0.179 336.818,-0.238 363.092,0.632 366.400 C 1.267 368.814,3.722 374.330,5.617 377.600 C 8.271 382.179,17.815 391.773,21.600 393.665 C 22.150 393.940,22.871 394.386,23.201 394.656 C 24.488 395.704,31.130 398.712,33.600 399.365 C 36.903 400.238,63.179 400.182,64.061 399.300 C 64.335 399.025,64.929 398.800,65.380 398.800 C 65.831 398.800,67.190 398.267,68.400 397.616 C 69.610 396.965,70.830 396.425,71.112 396.416 C 73.928 396.329,87.371 384.335,91.305 378.400 C 91.669 377.850,92.692 376.410,93.577 375.200 C 96.212 371.597,98.172 368.798,98.636 367.977 C 98.875 367.553,99.400 366.842,99.803 366.397 C 100.205 365.952,101.539 364.087,102.767 362.253 C 103.995 360.419,106.800 356.253,109.000 352.997 C 111.200 349.740,113.360 346.479,113.800 345.749 C 114.240 345.019,114.898 344.074,115.263 343.650 C 115.627 343.225,116.233 342.230,116.608 341.439 C 116.984 340.648,117.429 340.000,117.597 340.000 C 117.765 340.000,118.127 339.460,118.400 338.800 C 118.673 338.140,119.055 337.600,119.249 337.600 C 119.442 337.600,119.600 337.438,119.600 337.239 C 119.600 337.040,121.130 334.608,123.000 331.835 C 124.870 329.061,126.400 326.641,126.400 326.458 C 126.400 326.274,126.760 325.798,127.200 325.400 C 127.640 325.002,128.000 324.506,128.000 324.299 C 128.000 324.092,128.990 322.517,130.200 320.800 C 131.410 319.083,132.400 317.508,132.400 317.301 C 132.400 317.094,132.760 316.598,133.200 316.200 C 133.640 315.802,134.000 315.260,134.000 314.996 C 134.000 314.733,134.436 314.046,134.969 313.471 C 135.502 312.896,136.066 312.015,136.223 311.513 C 136.380 311.011,137.024 310.009,137.654 309.286 C 138.284 308.563,138.800 307.782,138.800 307.549 C 138.800 307.317,139.168 306.648,139.618 306.063 C 141.099 304.138,144.000 299.642,144.000 299.273 C 144.000 299.073,144.540 298.231,145.200 297.400 C 145.860 296.569,146.400 295.701,146.400 295.471 C 146.400 295.240,146.743 294.680,147.162 294.226 C 147.581 293.772,148.256 292.848,148.662 292.172 C 152.980 284.991,156.962 281.624,163.739 279.425 C 165.888 278.728,170.750 278.426,173.800 278.801 C 175.120 278.964,176.353 278.958,176.539 278.789 C 176.725 278.620,177.355 278.722,177.939 279.016 C 178.523 279.310,180.440 280.227,182.200 281.053 C 185.306 282.511,185.891 283.042,202.200 299.210 C 211.440 308.370,219.857 316.430,220.904 317.121 C 224.564 319.537,231.446 319.826,235.158 317.721 C 237.078 316.631,270.800 283.380,270.800 282.575 C 270.800 281.683,134.155 145.458,132.750 144.949 C 130.752 144.226,103.928 144.257,102.000 144.985 M54.100 333.707 C 54.705 333.712,55.200 333.869,55.200 334.057 C 55.200 334.246,55.467 334.400,55.792 334.400 C 57.939 334.400,62.877 338.831,64.667 342.364 C 65.290 343.594,65.896 344.690,66.013 344.800 C 66.131 344.910,66.248 345.450,66.273 346.000 C 66.513 351.147,66.506 353.105,66.248 353.523 C 66.081 353.793,65.991 354.415,66.049 354.907 C 66.195 356.158,63.832 360.711,62.126 362.468 C 60.325 364.323,57.383 366.450,57.063 366.130 C 56.929 365.996,56.590 366.075,56.310 366.305 C 53.804 368.367,45.085 367.718,40.164 365.103 C 35.284 362.509,30.807 352.294,32.493 347.600 C 32.965 346.286,33.772 343.372,33.790 342.917 C 33.814 342.320,36.345 338.975,37.870 337.526 C 39.448 336.026,43.987 333.831,45.260 333.952 C 45.844 334.007,46.411 333.905,46.522 333.726 C 46.633 333.547,48.135 333.468,49.862 333.550 C 51.588 333.633,53.495 333.703,54.100 333.707 " stroke="none" fill="#040404" fill-rule="evenodd"></path></g></svg>