<svg id="svg" version="1.1" xmlns="http://www.w3.org/2000/svg" xmlns:xlink="http://www.w3.org/1999/xlink" width="400" height="400" viewBox="0, 0, 400,400"><g id="svgg"><path id="path0" d="M180.200 180.400 L 164.605 195.999 206.302 237.704 C 229.236 260.642,248.000 279.675,248.000 280.000 C 248.000 280.325,229.236 299.358,206.302 322.296 L 164.603 364.002 180.301 379.699 L 195.998 395.397 237.704 353.698 C 260.642 330.764,279.675 312.000,280.000 312.000 C 280.325 312.000,299.358 330.764,322.296 353.698 L 364.002 395.397 379.699 379.699 L 395.397 364.002 353.698 322.296 C 330.764 299.358,312.000 280.325,312.000 280.000 C 312.000 279.675,330.764 260.642,353.698 237.704 L 395.397 195.998 379.699 180.301 L 364.002 164.603 322.296 206.302 C 299.358 229.236,280.325 248.000,280.000 248.000 C 279.675 248.000,260.686 229.280,237.802 206.400 C 214.918 183.520,196.105 164.800,195.995 164.800 C 195.886 164.800,188.778 171.820,180.200 180.400 " stroke="none" fill="#fb0404" fill-rule="evenodd"></path><path id="path1" d="M190.600 30.750 C 186.437 31.527,184.132 33.925,182.452 39.228 C 182.125 40.261,182.000 55.440,182.000 94.074 L 182.000 147.492 181.165 148.554 C 179.340 150.874,176.620 151.406,174.359 149.886 C 171.443 147.924,171.642 151.622,171.610 98.600 C 171.579 45.462,171.781 49.332,168.876 46.263 C 164.600 41.744,148.359 41.667,143.882 46.144 C 140.747 49.280,141.024 43.912,140.800 105.800 C 140.607 159.178,140.575 161.037,139.841 162.120 C 137.822 165.099,133.595 165.175,131.439 162.271 C 130.604 161.147,130.599 160.963,130.400 121.871 C 130.178 78.267,130.417 81.869,127.529 78.580 C 124.914 75.602,123.406 75.200,114.864 75.200 C 105.413 75.200,102.877 76.178,100.347 80.800 C 99.891 81.634,99.755 97.341,99.528 175.400 C 99.379 226.880,99.226 269.810,99.189 270.800 C 98.771 281.860,104.761 299.664,111.388 307.060 C 111.615 307.313,112.694 308.573,113.787 309.860 C 116.621 313.198,121.661 317.672,125.500 320.258 L 128.800 322.481 128.800 338.829 L 128.800 355.177 129.750 357.289 C 132.254 362.854,134.317 363.724,145.500 363.926 C 151.682 364.038,154.400 364.223,154.400 364.533 C 154.400 364.778,162.272 372.859,171.894 382.489 L 189.388 400.000 195.976 400.000 L 202.564 400.000 241.069 361.500 C 262.247 340.325,279.766 323.000,280.000 323.000 C 280.234 323.000,297.753 340.325,318.931 361.500 L 357.436 400.000 364.020 400.000 L 370.604 400.000 385.302 385.298 L 400.000 370.596 400.000 364.016 L 400.000 357.436 361.500 318.933 C 340.325 297.757,323.000 280.237,323.000 280.000 C 323.000 279.763,340.325 262.243,361.500 241.067 L 400.000 202.564 399.994 195.982 L 399.988 189.400 382.462 171.900 C 369.246 158.702,364.705 154.400,363.991 154.400 C 363.270 154.400,355.588 161.854,331.822 185.612 L 300.600 216.824 300.400 190.294 C 300.181 161.178,300.359 163.263,297.847 160.452 C 295.269 157.568,294.637 157.412,284.943 157.273 C 274.786 157.127,273.692 157.314,271.039 159.649 C 267.152 163.071,267.416 160.828,267.289 191.525 L 267.178 218.450 266.205 219.992 C 265.670 220.839,265.068 221.635,264.867 221.759 C 264.665 221.883,262.319 219.783,259.652 217.092 L 254.804 212.200 254.798 131.800 L 254.792 51.400 253.829 49.330 C 251.371 44.052,249.362 43.200,239.374 43.200 C 229.568 43.200,227.408 44.048,224.974 48.851 L 224.000 50.773 223.984 98.287 L 223.967 145.800 223.084 147.576 C 221.352 151.057,217.630 151.710,214.928 149.008 L 213.600 147.680 213.586 94.540 C 213.571 37.928,213.593 38.622,211.666 35.509 C 210.622 33.821,208.962 32.296,207.200 31.404 C 205.659 30.623,193.786 30.156,190.600 30.750 M237.802 206.400 C 260.686 229.280,279.675 248.000,280.000 248.000 C 280.325 248.000,299.358 229.236,322.296 206.302 L 364.002 164.603 379.699 180.301 L 395.397 195.998 353.698 237.704 C 330.764 260.642,312.000 279.675,312.000 280.000 C 312.000 280.325,330.764 299.358,353.698 322.296 L 395.397 364.002 379.699 379.699 L 364.002 395.397 322.296 353.698 C 299.358 330.764,280.325 312.000,280.000 312.000 C 279.675 312.000,260.642 330.764,237.704 353.698 L 195.998 395.397 180.301 379.699 L 164.603 364.002 206.302 322.296 C 229.236 299.358,248.000 280.325,248.000 280.000 C 248.000 279.675,229.236 260.642,206.302 237.704 L 164.605 195.999 180.200 180.400 C 188.778 171.820,195.886 164.800,195.995 164.800 C 196.105 164.800,214.918 183.520,237.802 206.400 " stroke="none" fill="#040404" fill-rule="evenodd"></path></g></svg>