<svg id="svg" version="1.1" xmlns="http://www.w3.org/2000/svg" xmlns:xlink="http://www.w3.org/1999/xlink" width="400" height="400" viewBox="0, 0, 400,400"><g id="svgg"><path id="path0" d="M136.880 114.880 C 136.322 115.438,136.174 275.425,136.730 276.301 C 136.984 276.700,153.068 276.781,215.824 276.701 L 294.600 276.600 294.701 210.003 L 294.802 143.406 280.303 128.903 L 265.804 114.400 201.582 114.400 C 152.165 114.400,137.249 114.511,136.880 114.880 M253.600 148.224 L 253.600 172.800 212.643 172.800 C 175.664 172.800,171.662 172.739,171.443 172.167 C 171.309 171.819,171.200 160.750,171.200 147.569 L 171.200 123.604 212.100 123.502 C 234.595 123.446,253.135 123.456,253.300 123.524 C 253.465 123.592,253.600 134.707,253.600 148.224 M224.183 131.300 C 224.077 131.575,224.038 139.450,224.096 148.800 L 224.200 165.800 235.400 165.800 L 246.600 165.800 246.711 149.200 C 246.772 140.070,246.724 132.195,246.604 131.700 L 246.385 130.800 235.380 130.800 C 226.945 130.800,224.330 130.917,224.183 131.300 M263.600 234.900 L 263.600 268.000 214.267 268.000 C 187.133 268.000,164.858 267.925,164.767 267.833 C 164.675 267.742,164.647 252.847,164.705 234.733 L 164.809 201.800 214.205 201.800 L 263.600 201.800 263.600 234.900 M177.800 212.656 C 174.558 214.371,174.137 220.800,177.267 220.800 C 177.582 220.800,178.029 220.989,178.261 221.221 C 179.154 222.114,205.050 221.528,205.984 220.594 C 207.790 218.787,207.216 213.443,205.158 212.905 C 204.741 212.796,204.400 212.557,204.400 212.374 C 204.400 211.689,179.122 211.957,177.800 212.656 M176.667 226.667 C 174.716 228.617,174.594 231.098,176.350 233.090 C 176.976 233.799,177.603 234.264,177.744 234.123 C 177.885 233.982,178.000 234.077,178.000 234.333 C 178.000 235.106,212.700 234.988,214.259 234.210 C 217.347 232.670,217.781 229.163,215.222 226.424 L 214.079 225.200 196.106 225.200 L 178.133 225.200 176.667 226.667 M218.803 226.860 C 214.892 232.258,221.240 237.502,225.993 232.800 C 226.936 231.868,226.811 228.013,225.805 227.000 C 223.378 224.556,220.513 224.499,218.803 226.860 " stroke="none" fill="#04fc24" fill-rule="evenodd"></path><path id="path1" d="M190.000 0.433 C 189.230 0.616,186.350 1.135,183.600 1.588 C 175.784 2.873,169.339 4.256,164.000 5.794 C 163.010 6.079,161.120 6.619,159.800 6.994 C 97.877 24.587,43.953 77.557,25.418 139.000 C 25.153 139.880,24.831 140.870,24.704 141.200 C 24.577 141.530,24.263 142.610,24.007 143.600 C 23.751 144.590,23.271 146.390,22.941 147.600 C 22.612 148.810,22.085 150.880,21.770 152.200 C 21.455 153.520,21.004 155.410,20.767 156.400 C 13.997 184.696,14.865 222.215,22.994 252.600 C 23.347 253.920,23.811 255.720,24.025 256.600 C 24.239 257.480,24.567 258.560,24.754 259.000 C 24.940 259.440,25.467 260.970,25.924 262.400 C 33.523 286.175,48.617 313.233,63.783 330.268 C 64.012 330.526,65.370 332.090,66.800 333.743 C 70.071 337.525,80.435 347.819,84.400 351.223 C 86.050 352.640,87.490 353.903,87.600 354.030 C 87.998 354.489,96.364 361.045,98.941 362.917 C 108.537 369.887,125.623 379.907,133.200 383.009 C 133.750 383.234,135.910 384.170,138.000 385.088 C 144.100 387.768,155.105 391.782,159.003 392.748 C 159.881 392.966,162.220 393.623,164.200 394.207 C 169.642 395.813,178.551 397.711,188.000 399.277 C 191.395 399.840,239.488 400.175,240.600 399.644 C 241.040 399.433,242.930 399.151,244.800 399.017 C 246.670 398.882,248.740 398.609,249.400 398.410 C 250.472 398.087,254.070 397.472,258.000 396.940 C 258.770 396.836,259.760 396.588,260.200 396.389 C 260.640 396.190,261.900 395.852,263.000 395.636 C 265.185 395.208,268.996 394.284,271.200 393.646 C 279.822 391.154,282.161 390.407,286.000 388.919 C 287.430 388.365,289.320 387.640,290.200 387.308 C 292.503 386.439,293.063 386.210,296.400 384.780 C 300.713 382.932,315.008 375.787,317.600 374.185 C 318.810 373.437,320.070 372.699,320.400 372.544 C 320.730 372.389,322.048 371.573,323.328 370.731 C 324.609 369.889,325.786 369.200,325.943 369.200 C 326.101 369.200,326.853 368.667,327.615 368.016 C 328.377 367.365,329.152 366.825,329.337 366.816 C 329.522 366.807,330.086 366.485,330.591 366.100 C 331.095 365.715,331.909 365.130,332.399 364.800 C 333.372 364.145,335.913 362.250,336.683 361.605 C 336.949 361.382,337.322 361.200,337.513 361.200 C 337.704 361.200,338.297 360.732,338.830 360.160 C 339.364 359.588,340.700 358.520,341.800 357.785 C 342.900 357.051,344.420 355.809,345.178 355.025 C 345.937 354.241,346.721 353.600,346.922 353.600 C 347.122 353.600,348.212 352.733,349.343 351.674 C 356.772 344.718,356.839 344.647,356.719 343.689 C 356.598 342.724,353.698 339.570,340.415 325.958 C 332.005 317.341,332.287 317.413,327.212 322.570 C 325.788 324.017,324.409 325.200,324.147 325.200 C 323.885 325.200,323.248 325.695,322.730 326.300 C 322.212 326.905,320.929 328.030,319.879 328.800 C 318.828 329.570,316.851 331.046,315.484 332.080 C 314.118 333.114,312.550 334.301,312.000 334.717 C 310.251 336.039,307.022 338.239,306.400 338.531 C 306.070 338.686,304.990 339.347,304.000 340.000 C 303.010 340.653,301.750 341.405,301.200 341.671 C 300.650 341.937,299.930 342.372,299.600 342.638 C 298.552 343.483,283.779 350.738,280.526 352.006 C 278.807 352.676,277.040 353.375,276.600 353.559 C 274.398 354.479,271.059 355.663,268.000 356.607 C 266.130 357.185,264.150 357.820,263.600 358.019 C 263.050 358.218,261.790 358.577,260.800 358.816 C 259.810 359.055,257.920 359.520,256.600 359.849 C 249.023 361.736,239.536 363.290,231.000 364.042 C 224.761 364.591,199.724 364.284,199.090 363.650 C 198.843 363.403,197.731 363.199,196.620 363.198 C 195.509 363.197,193.970 363.023,193.200 362.812 C 192.430 362.601,190.540 362.251,189.000 362.035 C 184.955 361.467,181.520 360.801,180.600 360.406 C 180.160 360.217,179.027 359.955,178.083 359.824 C 177.138 359.692,176.058 359.428,175.683 359.235 C 175.307 359.043,174.010 358.666,172.800 358.398 C 170.592 357.909,160.847 354.764,158.600 353.815 C 157.940 353.537,156.590 352.986,155.600 352.591 C 150.743 350.655,143.814 347.437,140.212 345.445 C 138.666 344.589,136.770 343.547,136.000 343.130 C 135.230 342.712,133.790 341.846,132.800 341.205 C 131.810 340.564,130.370 339.726,129.600 339.341 C 128.830 338.956,128.110 338.533,128.000 338.401 C 127.890 338.269,126.519 337.316,124.952 336.284 C 123.386 335.253,121.879 334.136,121.603 333.804 C 121.328 333.472,120.918 333.200,120.694 333.200 C 120.470 333.200,119.367 332.418,118.243 331.462 C 117.119 330.506,115.981 329.651,115.714 329.562 C 115.446 329.473,113.704 328.005,111.843 326.300 C 109.982 324.595,108.312 323.200,108.134 323.200 C 107.671 323.200,94.800 310.289,94.800 309.825 C 94.800 309.614,94.100 308.712,93.245 307.821 C 90.393 304.848,88.000 302.120,88.000 301.841 C 88.000 301.689,87.145 300.503,86.100 299.204 C 83.385 295.831,81.200 292.910,81.200 292.655 C 81.200 292.534,80.480 291.408,79.600 290.151 C 78.720 288.895,78.000 287.649,78.000 287.383 C 78.000 287.116,77.747 286.688,77.437 286.431 C 77.127 286.174,76.578 285.386,76.217 284.682 C 75.855 283.977,75.044 282.590,74.414 281.600 C 72.909 279.236,66.791 267.134,66.796 266.532 C 66.798 266.275,66.546 265.555,66.235 264.932 C 64.795 262.043,63.617 259.215,63.015 257.200 C 62.653 255.990,62.184 254.683,61.972 254.295 C 61.454 253.347,60.538 250.521,60.190 248.800 C 60.035 248.030,59.769 247.220,59.600 247.000 C 59.431 246.780,59.085 245.700,58.831 244.600 C 58.577 243.500,58.097 241.520,57.765 240.200 C 57.433 238.880,57.058 237.260,56.931 236.600 C 56.804 235.940,56.557 235.220,56.384 235.000 C 56.210 234.780,55.940 233.250,55.783 231.600 C 55.626 229.950,55.359 228.420,55.189 228.200 C 55.020 227.980,54.751 226.180,54.593 224.200 C 54.434 222.220,54.144 220.398,53.947 220.152 C 53.666 219.801,52.825 205.454,52.789 200.400 C 52.760 196.355,53.679 180.184,53.957 179.835 C 54.148 179.596,54.434 177.780,54.593 175.800 C 54.751 173.820,55.020 172.020,55.189 171.800 C 55.359 171.580,55.626 170.050,55.783 168.400 C 55.940 166.750,56.210 165.220,56.384 165.000 C 56.557 164.780,56.804 164.060,56.931 163.400 C 57.058 162.740,57.433 161.120,57.765 159.800 C 58.097 158.480,58.577 156.500,58.831 155.400 C 59.085 154.300,59.431 153.220,59.600 153.000 C 59.769 152.780,60.035 151.970,60.190 151.200 C 60.538 149.479,61.454 146.653,61.972 145.705 C 62.184 145.317,62.651 144.010,63.010 142.800 C 63.690 140.504,64.037 139.646,65.760 135.994 C 66.332 134.781,66.800 133.596,66.800 133.362 C 66.800 132.903,72.861 120.712,73.497 119.892 C 73.707 119.622,74.307 118.590,74.831 117.600 C 75.355 116.610,76.283 115.144,76.892 114.342 C 77.501 113.541,78.000 112.716,78.000 112.509 C 78.000 112.302,78.720 111.105,79.600 109.849 C 80.480 108.592,81.200 107.466,81.200 107.345 C 81.200 107.090,83.385 104.169,86.100 100.796 C 87.145 99.497,88.000 98.320,88.000 98.179 C 88.000 98.038,89.035 96.740,90.300 95.293 C 91.565 93.847,92.960 92.204,93.400 91.643 C 96.034 88.286,114.894 70.400,115.801 70.400 C 115.950 70.400,117.021 69.590,118.179 68.600 C 119.338 67.610,120.409 66.800,120.559 66.800 C 120.825 66.800,123.198 65.223,123.600 64.779 C 123.710 64.658,124.700 63.938,125.800 63.179 C 126.900 62.421,127.890 61.701,128.000 61.579 C 128.110 61.458,128.830 61.044,129.600 60.659 C 130.370 60.274,131.810 59.436,132.800 58.795 C 133.790 58.154,135.230 57.288,136.000 56.870 C 136.770 56.453,138.664 55.411,140.209 54.555 C 141.754 53.700,144.364 52.393,146.009 51.652 C 147.654 50.911,149.900 49.885,151.000 49.373 C 152.100 48.861,153.990 48.051,155.200 47.573 C 156.410 47.095,157.940 46.473,158.600 46.191 C 160.752 45.271,170.545 42.102,172.800 41.596 C 174.010 41.324,175.360 40.947,175.800 40.758 C 177.376 40.081,183.980 38.686,189.000 37.971 C 190.540 37.752,192.430 37.399,193.200 37.188 C 193.970 36.977,195.509 36.803,196.620 36.802 C 197.731 36.801,198.846 36.594,199.098 36.342 C 200.265 35.175,230.381 35.511,238.400 36.780 C 241.298 37.239,246.845 38.132,250.800 38.778 C 252.230 39.011,253.850 39.370,254.400 39.576 C 254.950 39.782,256.030 40.066,256.800 40.208 C 257.570 40.350,258.740 40.625,259.400 40.819 C 267.192 43.111,269.174 43.708,270.200 44.070 C 272.404 44.848,275.791 46.103,276.600 46.442 C 277.040 46.627,278.390 47.150,279.600 47.604 C 281.724 48.401,289.975 52.129,291.200 52.845 C 291.530 53.038,293.510 54.103,295.600 55.211 C 297.690 56.319,300.120 57.658,301.000 58.186 C 301.880 58.715,303.230 59.521,304.000 59.978 C 306.079 61.211,306.725 61.634,309.380 63.502 C 310.711 64.438,312.700 65.803,313.800 66.536 C 314.900 67.268,316.047 68.167,316.349 68.534 C 316.651 68.900,317.079 69.200,317.300 69.200 C 317.720 69.200,319.988 71.077,322.412 73.429 C 323.189 74.183,323.985 74.800,324.182 74.800 C 324.379 74.800,325.903 76.086,327.570 77.658 C 333.454 83.208,336.400 86.089,336.400 86.297 C 336.400 86.514,337.899 88.179,346.798 97.856 C 349.659 100.968,352.000 103.654,352.000 103.826 C 352.000 104.131,355.479 107.929,359.853 112.400 C 361.037 113.610,362.004 114.766,362.003 114.970 C 362.001 115.173,363.215 116.627,364.700 118.200 C 366.185 119.773,368.570 122.375,370.000 123.982 C 377.411 132.311,378.488 133.079,381.047 131.858 C 383.883 130.506,383.951 129.748,382.198 119.000 C 381.213 112.964,381.149 112.620,380.894 112.000 C 380.759 111.670,380.421 109.870,380.144 108.000 C 379.867 106.130,379.441 103.250,379.198 101.600 C 378.954 99.950,378.641 98.330,378.501 98.000 C 378.265 97.441,377.470 92.540,376.943 88.400 C 376.817 87.410,376.569 86.420,376.391 86.200 C 376.213 85.980,375.940 84.450,375.782 82.800 C 375.625 81.150,375.385 79.620,375.248 79.400 C 375.112 79.180,374.786 77.470,374.525 75.600 C 374.264 73.730,373.755 70.580,373.395 68.600 C 372.735 64.978,371.773 59.170,371.342 56.200 C 371.215 55.320,370.972 54.420,370.803 54.200 C 370.634 53.980,370.366 52.373,370.207 50.629 C 370.048 48.885,369.773 47.175,369.596 46.829 C 369.418 46.483,369.073 44.850,368.830 43.200 C 368.587 41.550,368.113 38.490,367.777 36.400 C 367.441 34.310,367.064 31.790,366.940 30.800 C 366.816 29.810,366.569 28.820,366.391 28.600 C 366.213 28.380,365.940 26.850,365.783 25.200 C 365.626 23.550,365.362 22.020,365.197 21.800 C 365.031 21.580,364.766 19.960,364.607 18.200 C 364.448 16.440,364.201 14.820,364.059 14.600 C 363.816 14.224,363.037 9.871,362.544 6.127 C 361.973 1.794,356.066 -1.476,352.274 0.442 C 351.793 0.685,345.063 7.201,337.318 14.922 L 323.236 28.960 321.518 28.049 C 320.573 27.549,318.810 26.535,317.600 25.797 C 314.948 24.179,300.593 17.017,296.400 15.220 C 293.062 13.789,292.579 13.592,290.000 12.611 C 289.010 12.234,287.660 11.683,287.000 11.385 C 283.451 9.785,269.540 5.719,262.400 4.196 C 260.970 3.891,258.990 3.448,258.000 3.212 C 257.010 2.975,254.940 2.595,253.400 2.367 C 251.860 2.138,250.048 1.783,249.374 1.576 C 248.700 1.370,246.489 1.084,244.460 0.940 C 242.432 0.796,240.678 0.526,240.562 0.339 C 240.293 -0.097,191.856 -0.007,190.000 0.433 M212.100 123.502 L 171.200 123.604 171.200 147.569 C 171.200 160.750,171.309 171.819,171.443 172.167 C 171.662 172.739,175.664 172.800,212.643 172.800 L 253.600 172.800 253.600 148.224 C 253.600 134.707,253.465 123.592,253.300 123.524 C 253.135 123.456,234.595 123.446,212.100 123.502 M252.800 148.400 L 252.800 172.400 212.400 172.400 L 172.000 172.400 172.000 148.400 L 172.000 124.400 212.400 124.400 L 252.800 124.400 252.800 148.400 M225.600 130.400 C 225.600 130.656,229.067 130.800,235.200 130.800 C 241.333 130.800,244.800 130.656,244.800 130.400 C 244.800 130.144,241.333 130.000,235.200 130.000 C 229.067 130.000,225.600 130.144,225.600 130.400 M223.467 131.867 C 223.020 132.313,223.151 164.322,223.600 164.600 C 223.864 164.763,224.000 159.204,224.000 148.224 C 224.000 139.081,223.940 131.600,223.867 131.600 C 223.793 131.600,223.613 131.720,223.467 131.867 M225.400 166.400 C 225.726 166.927,244.384 166.927,245.200 166.400 C 245.596 166.144,242.290 166.010,235.476 166.006 C 228.694 166.002,225.238 166.137,225.400 166.400 M164.705 234.733 C 164.647 252.847,164.675 267.742,164.767 267.833 C 164.858 267.925,187.133 268.000,214.267 268.000 L 263.600 268.000 263.600 234.900 L 263.600 201.800 214.205 201.800 L 164.809 201.800 164.705 234.733 M262.702 234.700 L 262.600 267.000 214.100 267.102 L 165.600 267.203 165.600 234.802 L 165.600 202.400 214.202 202.400 L 262.805 202.400 262.702 234.700 M177.900 212.229 C 176.404 213.041,176.496 213.378,178.002 212.599 C 179.027 212.069,181.019 211.994,191.564 212.089 C 198.362 212.150,203.841 212.065,203.738 211.900 C 203.351 211.274,179.091 211.583,177.900 212.229 M174.673 215.500 C 174.423 215.933,174.624 218.357,174.936 218.669 C 175.081 218.814,175.200 218.093,175.200 217.067 C 175.200 215.283,175.053 214.845,174.673 215.500 M207.129 217.227 C 206.995 218.626,207.045 218.753,207.487 218.149 C 208.081 217.336,208.160 216.146,207.642 215.826 C 207.445 215.704,207.214 216.335,207.129 217.227 M191.400 221.592 C 184.360 221.706,178.891 221.945,179.247 222.123 C 180.322 222.658,203.268 222.281,204.200 221.712 C 204.640 221.444,204.820 221.260,204.600 221.304 C 204.380 221.347,198.440 221.477,191.400 221.592 M178.800 224.800 C 178.408 225.054,184.362 225.188,196.000 225.188 C 207.638 225.188,213.592 225.054,213.200 224.800 C 212.837 224.566,206.038 224.412,196.000 224.412 C 185.962 224.412,179.163 224.566,178.800 224.800 M221.300 225.076 C 221.685 225.176,222.315 225.176,222.700 225.076 C 223.085 224.975,222.770 224.893,222.000 224.893 C 221.230 224.893,220.915 224.975,221.300 225.076 M176.800 225.898 C 174.242 228.743,173.951 230.215,175.495 232.500 C 176.053 233.325,176.672 234.000,176.871 234.000 C 177.070 234.000,176.775 233.507,176.216 232.904 C 174.584 231.144,174.771 228.563,176.667 226.667 C 177.473 225.860,177.968 225.207,177.767 225.215 C 177.565 225.224,177.130 225.531,176.800 225.898 M218.020 227.376 C 217.757 227.693,217.253 227.842,216.901 227.707 C 216.397 227.513,216.328 227.624,216.576 228.231 C 217.276 229.942,217.252 230.446,216.400 231.892 C 215.530 233.369,215.529 233.384,216.356 232.638 C 217.186 231.889,217.215 231.889,218.100 232.638 C 218.999 233.399,218.999 233.399,218.300 232.569 C 217.425 231.529,217.383 228.887,218.223 227.689 C 218.915 226.701,218.768 226.475,218.020 227.376 M226.400 230.000 C 226.400 231.263,226.553 231.953,226.800 231.800 C 227.020 231.664,227.200 230.854,227.200 230.000 C 227.200 229.146,227.020 228.336,226.800 228.200 C 226.553 228.047,226.400 228.737,226.400 230.000 M187.327 235.100 C 192.127 235.164,199.867 235.163,204.527 235.099 C 209.187 235.036,205.260 234.983,195.800 234.983 C 186.340 234.983,182.527 235.036,187.327 235.100 " stroke="none" fill="#040404" fill-rule="evenodd"></path></g></svg>