<svg id="svg" version="1.1" xmlns="http://www.w3.org/2000/svg" xmlns:xlink="http://www.w3.org/1999/xlink" width="400" height="400" viewBox="0, 0, 400,400"><g id="svgg"><path id="path0" d="M316.333 230.086 C 290.080 265.773,263.372 302.075,256.983 310.758 C 250.594 319.441,245.129 326.624,244.839 326.720 C 244.539 326.820,233.901 316.491,220.154 302.751 L 195.996 278.605 180.299 294.303 L 164.601 310.000 207.093 352.493 C 244.263 389.663,249.657 394.911,250.156 394.393 C 250.736 393.789,394.008 198.971,395.123 197.269 C 395.723 196.352,395.483 196.086,380.169 180.769 C 371.608 172.206,364.483 165.200,364.335 165.200 C 364.187 165.200,342.586 194.399,316.333 230.086 " stroke="none" fill="#04fb23" fill-rule="evenodd"></path><path id="path1" d="M176.000 49.145 C 175.670 49.336,174.442 49.600,173.271 49.731 C 172.100 49.862,170.480 50.183,169.671 50.445 C 148.340 57.342,136.762 71.175,141.620 83.957 C 146.452 96.669,161.473 99.670,171.800 89.987 C 176.130 85.927,179.195 84.638,183.969 84.867 C 199.841 85.628,204.061 106.918,189.690 113.726 L 187.000 115.000 108.400 115.200 C 36.731 115.382,29.633 115.458,27.904 116.060 C 11.185 121.876,11.291 144.880,28.063 150.574 C 30.367 151.356,189.142 151.299,193.241 150.514 C 209.191 147.461,223.434 136.109,230.313 120.968 C 231.021 119.411,231.600 117.872,231.600 117.548 C 231.600 117.225,231.761 116.789,231.958 116.580 C 232.300 116.216,232.819 114.295,233.625 110.400 C 235.227 102.668,234.969 95.128,232.784 85.800 C 232.527 84.700,232.155 83.629,231.958 83.420 C 231.761 83.211,231.600 82.775,231.600 82.452 C 231.600 82.128,231.021 80.589,230.313 79.032 C 223.401 63.818,209.017 52.363,193.241 49.510 C 190.321 48.981,176.777 48.695,176.000 49.145 M309.400 82.356 C 308.960 82.539,307.250 82.813,305.600 82.967 C 303.950 83.120,302.060 83.410,301.400 83.610 C 300.740 83.810,299.120 84.282,297.800 84.657 C 283.739 88.662,267.410 100.134,263.152 109.000 C 259.182 117.265,262.947 128.663,270.928 132.539 C 278.987 136.454,286.127 135.116,293.200 128.365 C 306.181 115.976,322.889 114.508,336.000 124.603 C 341.542 128.870,347.600 138.004,347.600 142.092 C 347.600 142.613,347.799 143.239,348.042 143.482 C 348.327 143.767,348.485 146.095,348.485 150.000 C 348.485 153.905,348.327 156.233,348.042 156.518 C 347.799 156.761,347.600 157.387,347.600 157.908 C 347.600 164.459,337.727 175.782,328.775 179.498 C 322.256 182.204,334.786 182.000,175.117 182.003 C 33.355 182.006,30.551 182.021,28.054 182.780 C 11.414 187.840,11.239 211.639,27.802 217.178 C 30.184 217.975,31.149 217.980,172.743 217.990 C 300.414 217.999,315.261 218.064,315.051 218.611 C 314.862 219.103,300.941 238.148,278.887 268.084 L 276.321 271.567 275.432 270.484 C 274.944 269.888,274.287 269.020,273.972 268.556 C 268.120 259.919,254.913 251.723,243.241 249.485 C 239.142 248.699,30.371 248.642,28.061 249.427 C 12.901 254.574,10.857 274.973,24.744 282.531 C 29.064 284.882,25.625 284.785,105.300 284.793 C 145.505 284.797,178.400 284.916,178.400 285.059 C 178.400 285.201,173.000 290.706,166.400 297.292 C 159.024 304.653,154.400 309.563,154.400 310.033 C 154.400 310.515,170.899 327.299,199.003 355.409 L 243.606 400.021 249.693 399.910 L 255.780 399.800 259.901 394.200 C 262.168 391.120,265.274 386.890,266.802 384.800 C 268.331 382.710,271.791 377.999,274.491 374.332 C 277.191 370.664,283.270 362.398,288.000 355.963 C 292.730 349.528,298.267 341.999,300.303 339.232 C 302.340 336.464,305.326 332.400,306.939 330.200 C 308.552 328.000,312.066 323.230,314.748 319.600 C 317.430 315.970,321.593 310.300,324.000 307.000 C 326.407 303.700,330.570 298.030,333.251 294.400 C 338.552 287.224,341.650 283.014,348.410 273.800 C 350.831 270.500,354.340 265.730,356.209 263.200 C 358.077 260.670,361.582 255.900,363.998 252.600 C 366.414 249.300,369.925 244.530,371.800 242.000 C 373.675 239.470,377.186 234.700,379.602 231.400 C 382.018 228.100,385.931 222.767,388.297 219.549 C 390.664 216.330,394.265 211.426,396.300 208.651 L 400.000 203.605 399.996 196.503 L 399.992 189.400 390.764 180.208 C 382.694 172.169,381.562 170.890,381.740 170.008 C 381.852 169.454,382.240 167.830,382.603 166.400 C 389.164 140.546,379.918 113.780,358.361 96.217 C 354.890 93.389,346.657 88.665,342.192 86.939 C 336.445 84.718,333.325 83.846,327.800 82.919 C 323.778 82.244,310.641 81.842,309.400 82.356 M380.169 180.769 C 395.483 196.086,395.723 196.352,395.123 197.269 C 394.008 198.971,250.736 393.789,250.156 394.393 C 249.657 394.911,244.263 389.663,207.093 352.493 L 164.601 310.000 180.299 294.303 L 195.996 278.605 220.154 302.751 C 233.901 316.491,244.539 326.820,244.839 326.720 C 245.129 326.624,250.594 319.441,256.983 310.758 C 263.372 302.075,290.080 265.773,316.333 230.086 C 342.586 194.399,364.187 165.200,364.335 165.200 C 364.483 165.200,371.608 172.206,380.169 180.769 M239.690 286.274 C 249.389 290.869,251.581 303.181,244.043 310.719 C 242.898 311.864,241.809 312.800,241.622 312.800 C 241.266 312.800,213.600 285.323,213.600 284.969 C 213.600 284.857,218.865 284.819,225.300 284.883 L 237.000 285.000 239.690 286.274 " stroke="none" fill="#040404" fill-rule="evenodd"></path></g></svg>