<!DOCTYPE svg PUBLIC "-//W3C//DTD SVG 1.1//EN" "http://www.w3.org/Graphics/SVG/1.1/DTD/svg11.dtd">
<!-- Uploaded to: SVG Repo, www.svgrepo.com, Transformed by: SVG Repo Mixer Tools -->
<svg version="1.1" id="_x32_" xmlns="http://www.w3.org/2000/svg" xmlns:xlink="http://www.w3.org/1999/xlink" width="256px" height="256px" viewBox="0 0 512.00 512.00" xml:space="preserve" fill="#000000" stroke="#000000" stroke-width="0.00512">
<g id="SVGRepo_bgCarrier" stroke-width="0"/>
<g id="SVGRepo_tracerCarrier" stroke-linecap="round" stroke-linejoin="round"/>
<g id="SVGRepo_iconCarrier"> <style type="text/css">  .st0{fill:#000000;}  </style> <g> <path class="st0" d="M506.811,177.143c0-0.547-0.063-1.094-0.188-1.641l-2.422-9.906c-0.469-1.859-1.641-3.453-3.297-4.422 c-1.641-0.953-3.609-1.203-5.453-0.703l-76.453,21.297c-2.844,0.781-5.875-0.281-7.609-2.656l-35.125-48.391 c-1.063-1.469-1.516-3.297-1.281-5.109l7.078-51.391c0.375-2.781,2.375-5.078,5.094-5.828l80.75-22.484 c3.672-1.031,5.875-4.781,4.969-8.469l-3.188-13c-0.172-0.688-0.516-1.281-0.875-1.875c-20.922-14.922-45.5-22.453-70.109-22.563 c-30.875,0.219-61.688,12.047-85.234,35.609c-28.422,28.422-39.547,67.328-34.344,104.281c0.766,5.328,1.297,10.203,1.609,14.672 c5.438,19.594,15.828,38.094,31.234,53.5c14.641,14.641,32.078,24.766,50.594,30.391c2.734,0.266,5.547,0.828,8.422,1.813 c1.609,0.547,3.25,0.984,4.891,1.438c38.141,7.063,78.984-4.141,108.469-33.641C493.67,198.752,501.139,188.283,506.811,177.143z"/> <path class="st0" d="M319.404,255.049c-11.313-6.344-21.813-14.172-31.031-23.391c-10-10.016-18.375-21.484-24.969-33.922 C224.967,235.955,18.279,435.721,18.279,435.721c-17.453,17.453-17.453,45.734,0,63.188s45.734,17.453,63.188,0L319.404,255.049z M34.076,483.111c-8.734-8.719-8.734-22.859,0-31.594c8.719-8.719,22.859-8.719,31.594,0c8.719,8.734,8.719,22.875,0,31.594 C56.936,491.846,42.795,491.846,34.076,483.111z"/> </g> </g>
</svg>